<svg id="svg" version="1.1" width="512" height="512" xmlns="http://www.w3.org/2000/svg"><path d="M271.219 177.204 C 263.771 179.708,259.236 189.077,262.330 195.566 C 264.283 199.661,267.022 201.132,278.929 204.480 C 290.334 207.687,292.758 209.196,293.585 213.602 C 294.877 220.490,288.001 225.639,278.704 224.746 C 272.571 224.156,268.902 221.458,267.031 216.159 C 265.729 212.473,265.204 212.000,262.415 212.000 C 259.275 212.000,259.270 212.009,260.020 216.108 C 261.464 224.005,267.839 228.990,277.518 229.793 C 283.958 230.327,293.346 227.744,296.527 224.564 C 300.203 220.888,301.535 215.075,299.877 209.943 C 298.008 204.154,295.276 202.433,282.761 199.158 C 276.870 197.617,271.139 195.531,270.025 194.523 C 267.305 192.061,267.469 187.729,270.413 184.306 C 272.609 181.753,273.429 181.500,279.495 181.500 C 285.763 181.500,286.339 181.696,289.082 184.766 C 290.687 186.562,292.000 189.149,292.000 190.516 C 292.000 192.705,292.431 193.000,295.631 193.000 L 299.262 193.000 298.657 189.273 C 297.858 184.348,295.244 180.935,290.435 178.539 C 285.858 176.258,276.056 175.577,271.219 177.204 M165.000 180.000 L 165.000 183.000 174.000 183.000 L 183.000 183.000 183.000 206.000 L 183.000 229.000 186.500 229.000 L 190.000 229.000 190.000 206.000 L 190.000 183.000 198.500 183.000 L 207.000 183.000 207.000 180.000 L 207.000 177.000 186.000 177.000 L 165.000 177.000 165.000 180.000 M214.000 203.000 L 214.000 229.000 233.000 229.000 L 252.000 229.000 252.000 226.000 L 252.000 223.000 236.500 223.000 L 221.000 223.000 221.000 214.000 L 221.000 205.000 235.000 205.000 L 249.000 205.000 249.000 202.000 L 249.000 199.000 235.000 199.000 L 221.000 199.000 221.000 191.000 L 221.000 183.000 236.500 183.000 L 252.000 183.000 252.000 180.000 L 252.000 177.000 233.000 177.000 L 214.000 177.000 214.000 203.000 M305.000 180.000 L 305.000 183.000 314.000 183.000 L 323.000 183.000 323.000 206.000 L 323.000 229.000 326.500 229.000 L 330.000 229.000 330.000 206.000 L 330.000 183.000 338.500 183.000 L 347.000 183.000 347.000 180.000 L 347.000 177.000 326.000 177.000 L 305.000 177.000 305.000 180.000 M210.625 289.408 C 202.001 292.618,195.988 301.491,195.224 312.139 C 194.320 324.733,198.745 334.705,207.237 339.206 C 213.265 342.401,225.683 342.429,231.653 339.262 C 240.848 334.383,245.610 324.342,244.782 311.579 C 244.106 301.159,240.351 294.789,232.500 290.745 C 227.342 288.087,216.031 287.396,210.625 289.408 M267.748 289.427 C 265.684 290.163,262.468 291.931,260.600 293.356 C 251.379 300.389,248.770 320.539,255.625 331.773 C 262.191 342.533,279.138 345.357,289.633 337.440 L 292.765 335.077 293.358 338.039 C 293.826 340.382,294.477 341.000,296.475 341.000 L 299.000 341.000 299.000 327.000 L 299.000 313.000 287.500 313.000 L 276.000 313.000 276.000 316.000 L 276.000 319.000 284.000 319.000 L 292.000 319.000 291.978 321.750 C 291.966 323.262,291.079 326.432,290.008 328.793 C 287.470 334.384,281.188 337.465,273.776 336.753 C 264.290 335.841,259.789 329.659,259.160 316.680 C 258.701 307.197,260.571 301.462,265.544 297.096 C 273.399 290.199,285.828 292.557,289.635 301.668 C 290.827 304.522,291.517 305.000,294.444 305.000 C 297.822 305.000,297.850 304.963,296.930 301.757 C 296.419 299.973,296.000 298.413,296.000 298.291 C 296.000 298.169,294.608 296.484,292.906 294.546 C 287.813 288.745,276.251 286.392,267.748 289.427 M322.625 289.408 C 314.001 292.618,307.988 301.491,307.224 312.139 C 306.320 324.733,310.745 334.705,319.237 339.206 C 325.265 342.401,337.683 342.429,343.653 339.262 C 352.848 334.383,357.610 324.342,356.782 311.579 C 356.106 301.159,352.351 294.789,344.500 290.745 C 339.342 288.087,328.031 287.396,322.625 289.408 M157.000 315.000 L 157.000 341.000 174.000 341.000 L 191.000 341.000 191.000 338.000 L 191.000 335.000 177.500 335.000 L 164.000 335.000 164.000 312.000 L 164.000 289.000 160.500 289.000 L 157.000 289.000 157.000 315.000 M230.287 296.270 C 235.568 300.298,237.477 305.130,237.490 314.500 C 237.498 321.061,237.050 323.390,235.000 327.448 C 231.762 333.857,228.408 336.219,221.762 336.770 C 215.110 337.321,210.147 335.372,206.707 330.856 C 201.202 323.630,200.620 309.736,205.475 301.452 C 210.448 292.966,222.622 290.424,230.287 296.270 M342.287 296.270 C 347.568 300.298,349.477 305.130,349.490 314.500 C 349.498 321.061,349.050 323.390,347.000 327.448 C 343.762 333.857,340.408 336.219,333.762 336.770 C 327.110 337.321,322.147 335.372,318.707 330.856 C 313.202 323.630,312.620 309.736,317.475 301.452 C 322.448 292.966,334.622 290.424,342.287 296.270 " stroke="none" fill="black" fill-rule="evenodd"/></svg>